<svg xmlns="http://www.w3.org/2000/svg" xmlns:xlink="http://www.w3.org/1999/xlink" width="500" zoomAndPan="magnify" viewBox="0 0 375 374.999991" height="500" preserveAspectRatio="xMidYMid meet" version="1.0"><defs><clipPath id="3bc9b885ba"><path d="M 121.851562 121.851562 L 213 121.851562 L 213 213 L 121.851562 213 Z M 121.851562 121.851562 " clip-rule="nonzero"/></clipPath><clipPath id="7381be5cc5"><path d="M 162 162 L 253.101562 162 L 253.101562 253.101562 L 162 253.101562 Z M 162 162 " clip-rule="nonzero"/></clipPath></defs><path fill="#7b78e5" d="M 141.714844 40.09375 C 143.507812 40.09375 145.242188 40.09375 147.035156 40.214844 C 143.695312 35.945312 141.714844 30.625 141.714844 24.808594 C 141.714844 11.136719 152.789062 0 166.527344 0 C 180.199219 0 191.335938 11.136719 191.335938 24.808594 C 191.335938 34.339844 185.953125 42.628906 178.09375 46.773438 C 211.195312 59.519531 235.945312 89.09375 241.824219 125.042969 C 222.828125 86.1875 182.859375 59.394531 136.640625 59.394531 C 102.425781 59.394531 71.617188 74.121094 50.207031 97.507812 C 66.605469 63.542969 101.4375 40.09375 141.714844 40.09375 Z M 233.347656 334.96875 C 231.550781 334.96875 229.757812 334.90625 227.964844 334.785156 C 231.304688 339.054688 233.347656 344.375 233.347656 350.191406 C 233.347656 363.925781 222.210938 375 208.472656 375 C 194.800781 375 183.664062 363.925781 183.664062 350.191406 C 183.664062 340.660156 189.046875 332.371094 196.90625 328.226562 C 163.804688 315.480469 139.054688 285.90625 133.175781 249.957031 C 152.234375 288.875 192.140625 315.605469 238.359375 315.605469 C 272.574219 315.605469 303.382812 300.941406 324.792969 277.492188 C 308.394531 311.519531 273.625 334.96875 233.347656 334.96875 Z M 233.347656 334.96875 " fill-opacity="1" fill-rule="evenodd"/><path fill="#a9a0ff" d="M 292.308594 74.121094 C 293.175781 75.667969 294.042969 77.214844 294.847656 78.824219 C 296.824219 73.8125 300.476562 69.417969 305.488281 66.511719 C 317.367188 59.644531 332.527344 63.726562 339.394531 75.542969 C 346.261719 87.421875 342.175781 102.644531 330.296875 109.511719 C 322.070312 114.277344 312.230469 113.71875 304.683594 109.015625 C 310.191406 144.035156 296.949219 180.230469 268.796875 203.308594 C 292.929688 167.421875 296.144531 119.410156 273.066406 79.441406 C 255.929688 49.746094 227.777344 30.441406 196.78125 23.632812 C 234.460938 20.851562 272.140625 39.226562 292.308594 74.121094 Z M 82.691406 300.878906 C 81.824219 299.332031 80.957031 297.785156 80.152344 296.238281 C 78.175781 301.25 74.585938 305.644531 69.511719 308.550781 C 57.632812 315.355469 42.472656 311.335938 35.605469 299.457031 C 28.738281 287.578125 32.824219 272.417969 44.703125 265.550781 C 52.929688 260.785156 62.828125 261.28125 70.378906 266.046875 C 64.808594 230.964844 78.050781 194.769531 106.203125 171.691406 C 82.070312 207.640625 78.855469 255.589844 101.996094 295.621094 C 119.070312 325.253906 147.222656 344.558594 178.21875 351.367188 C 140.601562 354.210938 102.859375 335.773438 82.691406 300.878906 Z M 82.691406 300.878906 " fill-opacity="1" fill-rule="evenodd"/><path fill="#eba3cf" d="M 338.09375 221.558594 C 337.226562 223.105469 336.300781 224.589844 335.308594 226.078125 C 340.628906 225.335938 346.261719 226.261719 351.335938 229.171875 C 363.152344 236.039062 367.234375 251.195312 360.367188 263.074219 C 353.5625 274.953125 338.339844 279.039062 326.460938 272.171875 C 318.234375 267.40625 313.714844 258.621094 314.089844 249.710938 C 286.492188 272.046875 248.503906 278.667969 214.476562 265.796875 C 257.601562 268.765625 300.785156 247.546875 323.863281 207.515625 C 341 177.878906 343.664062 143.851562 334.074219 113.59375 C 355.292969 144.839844 358.265625 186.664062 338.09375 221.558594 Z M 36.90625 153.441406 C 37.773438 151.894531 38.761719 150.410156 39.691406 148.921875 C 34.371094 149.664062 28.738281 148.738281 23.726562 145.828125 C 11.847656 138.960938 7.765625 123.804688 14.632812 111.925781 C 21.5 100.046875 36.660156 96.023438 48.539062 102.828125 C 56.765625 107.59375 61.285156 116.378906 60.910156 125.289062 C 88.507812 103.015625 126.496094 96.332031 160.585938 109.203125 C 117.398438 106.292969 74.214844 127.453125 51.136719 167.484375 C 34 197.121094 31.335938 231.148438 40.925781 261.40625 C 19.707031 230.222656 16.796875 188.335938 36.90625 153.441406 Z M 36.90625 153.441406 " fill-opacity="1" fill-rule="evenodd"/><path fill="#7b78e5" d="M 243.679688 208.628906 L 243.679688 166.371094 L 208.597656 166.371094 L 208.597656 131.351562 L 166.402344 131.351562 L 166.402344 166.371094 L 131.320312 166.371094 L 131.320312 208.628906 L 166.402344 208.628906 L 166.402344 243.710938 L 208.597656 243.710938 L 208.597656 208.628906 Z M 243.679688 208.628906 " fill-opacity="1" fill-rule="evenodd"/><g clip-path="url(#3bc9b885ba)"><path fill="#5e17eb" d="M 172.261719 202.53125 L 131.859375 202.53125 L 131.859375 172.261719 L 167.195312 172.261719 C 167.527344 172.261719 167.855469 172.226562 168.183594 172.164062 C 168.507812 172.097656 168.828125 172.003906 169.132812 171.875 C 169.441406 171.746094 169.734375 171.589844 170.007812 171.40625 C 170.285156 171.222656 170.542969 171.011719 170.777344 170.777344 C 171.011719 170.542969 171.222656 170.285156 171.40625 170.007812 C 171.59375 169.734375 171.746094 169.441406 171.875 169.132812 C 172.003906 168.828125 172.097656 168.507812 172.164062 168.183594 C 172.226562 167.855469 172.261719 167.527344 172.261719 167.195312 L 172.261719 131.859375 L 202.53125 131.859375 L 202.53125 152.058594 L 212.640625 152.058594 L 212.640625 126.8125 C 212.640625 126.480469 212.609375 126.152344 212.546875 125.828125 C 212.480469 125.503906 212.386719 125.1875 212.257812 124.882812 C 212.132812 124.578125 211.976562 124.285156 211.792969 124.011719 C 211.609375 123.734375 211.398438 123.480469 211.164062 123.246094 C 210.929688 123.011719 210.675781 122.800781 210.398438 122.617188 C 210.125 122.433594 209.832031 122.277344 209.527344 122.152344 C 209.222656 122.027344 208.90625 121.929688 208.582031 121.867188 C 208.257812 121.800781 207.929688 121.769531 207.597656 121.769531 L 167.195312 121.769531 C 166.863281 121.769531 166.535156 121.800781 166.210938 121.867188 C 165.886719 121.929688 165.570312 122.027344 165.265625 122.152344 C 164.957031 122.277344 164.667969 122.433594 164.390625 122.617188 C 164.117188 122.800781 163.863281 123.011719 163.628906 123.246094 C 163.394531 123.480469 163.183594 123.734375 163 124.011719 C 162.816406 124.285156 162.660156 124.578125 162.535156 124.882812 C 162.40625 125.1875 162.3125 125.503906 162.246094 125.828125 C 162.183594 126.152344 162.148438 126.480469 162.148438 126.8125 L 162.148438 162.148438 L 126.8125 162.148438 C 126.480469 162.148438 126.152344 162.183594 125.828125 162.246094 C 125.503906 162.3125 125.1875 162.40625 124.882812 162.535156 C 124.578125 162.660156 124.285156 162.816406 124.011719 163 C 123.734375 163.183594 123.480469 163.394531 123.246094 163.628906 C 123.011719 163.863281 122.800781 164.117188 122.617188 164.390625 C 122.433594 164.667969 122.277344 164.957031 122.152344 165.265625 C 122.027344 165.570312 121.929688 165.886719 121.867188 166.210938 C 121.800781 166.535156 121.769531 166.863281 121.769531 167.195312 L 121.769531 207.597656 C 121.769531 207.929688 121.800781 208.257812 121.867188 208.582031 C 121.929688 208.90625 122.027344 209.222656 122.152344 209.527344 C 122.277344 209.832031 122.433594 210.125 122.617188 210.398438 C 122.800781 210.675781 123.011719 210.929688 123.246094 211.164062 C 123.480469 211.398438 123.734375 211.609375 124.011719 211.792969 C 124.285156 211.976562 124.578125 212.132812 124.882812 212.257812 C 125.1875 212.386719 125.503906 212.480469 125.828125 212.546875 C 126.152344 212.609375 126.480469 212.640625 126.8125 212.640625 L 172.300781 212.640625 Z M 172.261719 202.53125 " fill-opacity="1" fill-rule="nonzero"/></g><g clip-path="url(#7381be5cc5)"><path fill="#5e17eb" d="M 247.980469 162.148438 L 202.488281 162.148438 L 202.488281 172.261719 L 242.933594 172.261719 L 242.933594 202.53125 L 207.597656 202.53125 C 207.265625 202.53125 206.933594 202.5625 206.609375 202.628906 C 206.28125 202.695312 205.964844 202.789062 205.660156 202.917969 C 205.351562 203.042969 205.058594 203.199219 204.78125 203.386719 C 204.507812 203.570312 204.25 203.78125 204.015625 204.015625 C 203.78125 204.25 203.570312 204.507812 203.386719 204.78125 C 203.199219 205.058594 203.042969 205.351562 202.917969 205.660156 C 202.789062 205.964844 202.695312 206.28125 202.628906 206.609375 C 202.5625 206.933594 202.53125 207.265625 202.53125 207.597656 L 202.53125 242.933594 L 172.261719 242.933594 L 172.261719 222.734375 L 162.148438 222.734375 L 162.148438 247.980469 C 162.148438 248.308594 162.183594 248.636719 162.246094 248.964844 C 162.3125 249.289062 162.40625 249.601562 162.535156 249.910156 C 162.660156 250.214844 162.816406 250.507812 163 250.78125 C 163.183594 251.058594 163.394531 251.3125 163.628906 251.546875 C 163.863281 251.78125 164.117188 251.988281 164.390625 252.171875 C 164.667969 252.359375 164.957031 252.511719 165.265625 252.640625 C 165.570312 252.765625 165.886719 252.863281 166.210938 252.925781 C 166.535156 252.992188 166.863281 253.023438 167.195312 253.023438 L 207.597656 253.023438 C 207.929688 253.023438 208.257812 252.992188 208.582031 252.925781 C 208.90625 252.863281 209.222656 252.765625 209.527344 252.640625 C 209.832031 252.511719 210.125 252.359375 210.398438 252.171875 C 210.675781 251.988281 210.929688 251.78125 211.164062 251.546875 C 211.398438 251.3125 211.609375 251.058594 211.792969 250.78125 C 211.976562 250.507812 212.132812 250.214844 212.257812 249.910156 C 212.386719 249.601562 212.480469 249.289062 212.546875 248.964844 C 212.609375 248.636719 212.640625 248.308594 212.640625 247.980469 L 212.640625 212.640625 L 247.980469 212.640625 C 248.308594 212.640625 248.636719 212.609375 248.964844 212.546875 C 249.289062 212.480469 249.601562 212.386719 249.910156 212.257812 C 250.214844 212.132812 250.507812 211.976562 250.78125 211.792969 C 251.058594 211.609375 251.3125 211.398438 251.546875 211.164062 C 251.78125 210.929688 251.988281 210.675781 252.171875 210.398438 C 252.359375 210.125 252.511719 209.832031 252.640625 209.527344 C 252.765625 209.222656 252.863281 208.90625 252.925781 208.582031 C 252.992188 208.257812 253.023438 207.929688 253.023438 207.597656 L 253.023438 167.195312 C 253.023438 166.863281 252.992188 166.535156 252.925781 166.210938 C 252.863281 165.886719 252.765625 165.570312 252.640625 165.265625 C 252.511719 164.957031 252.359375 164.667969 252.171875 164.390625 C 251.988281 164.117188 251.78125 163.863281 251.546875 163.628906 C 251.3125 163.394531 251.058594 163.183594 250.78125 163 C 250.507812 162.816406 250.214844 162.660156 249.910156 162.535156 C 249.601562 162.40625 249.289062 162.3125 248.964844 162.246094 C 248.636719 162.183594 248.308594 162.148438 247.980469 162.148438 Z M 247.980469 162.148438 " fill-opacity="1" fill-rule="nonzero"/></g></svg>